<svg width="40" height="50" viewBox="0 0 60 60" fill="none" xmlns="http://www.w3.org/2000/svg">
<rect width="60" height="60" rx="12" fill="white"/>
<path d="M14.8031 28.4539C14.9259 28.4346 15.0501 28.4256 15.1744 28.4272H36.3388L35.8773 28.2186C35.4262 28.0112 35.0159 27.7288 34.6646 27.3843L28.7295 21.6173C27.9479 20.8922 27.8166 19.7258 28.4183 18.8537C29.1187 17.9243 30.4618 17.7225 31.4183 18.403C31.4956 18.458 31.569 18.518 31.638 18.5825L42.3705 29.0112C43.2092 29.8253 43.2099 31.1459 42.3721 31.9609C42.3716 31.9614 42.371 31.962 42.3705 31.9625L31.638 42.3912C30.7986 43.2045 29.4396 43.2027 28.6024 42.3871C28.5366 42.3229 28.4751 42.2546 28.4183 42.1826C27.8166 41.3104 27.9479 40.1441 28.7295 39.419L34.6538 33.6415C34.9688 33.3352 35.3309 33.0783 35.7271 32.8802L36.371 32.5987H15.2925C14.196 32.6382 13.234 31.8939 13.028 30.8466C12.8382 29.7096 13.633 28.6384 14.8031 28.4539Z" fill="#D72A33"/>
</svg>
