<svg width="40" height="40" viewBox="0 0 60 60" fill="none" xmlns="http://www.w3.org/2000/svg">
<rect width="60" height="60" rx="12" fill="#FED253"/>
<path d="M37.3827 28.6744C37.2315 28.3388 36.8992 28.125 36.5333 28.125H32.8V15.9375C32.8 15.42 32.3819 15 31.8667 15H28.1333C27.6181 15 27.2 15.42 27.2 15.9375V28.125H23.4667C23.1008 28.125 22.7685 28.3406 22.6173 28.6744C22.4643 29.01 22.524 29.4019 22.7648 29.6794L29.2981 37.1794C29.4755 37.3838 29.7312 37.5 30 37.5C30.2688 37.5 30.5245 37.3819 30.7019 37.1794L37.2352 29.6794C37.4779 29.4038 37.5339 29.01 37.3827 28.6744Z" fill="#D72A33"/>
<path d="M40.2667 35.625V41.25H19.7333V35.625H16V43.125C16 44.1619 16.8363 45 17.8667 45H42.1333C43.1656 45 44 44.1619 44 43.125V35.625H40.2667Z" fill="#D72A33"/>
</svg>
