<svg width="29" height="29" viewBox="0 0 29 29" fill="none" xmlns="http://www.w3.org/2000/svg">
<path d="M14.8145 7.70051C10.8186 7.70051 7.63439 10.9471 7.63439 14.8806C7.63439 18.8764 10.8186 22.0606 14.8145 22.0606C18.7479 22.0606 21.9945 18.8764 21.9945 14.8806C21.9945 10.9471 18.7479 7.70051 14.8145 7.70051ZM14.8145 19.5632C12.2546 19.5632 10.1318 17.5029 10.1318 14.8806C10.1318 12.3207 12.1922 10.2604 14.8145 10.2604C17.3743 10.2604 19.4347 12.3207 19.4347 14.8806C19.4347 17.5029 17.3743 19.5632 14.8145 19.5632ZM23.93 7.45077C23.93 6.51424 23.1808 5.76501 22.2443 5.76501C21.3077 5.76501 20.5585 6.51424 20.5585 7.45077C20.5585 8.3873 21.3077 9.13652 22.2443 9.13652C23.1808 9.13652 23.93 8.3873 23.93 7.45077ZM28.6751 9.13652C28.5502 6.88885 28.0507 4.89092 26.4274 3.2676C24.8041 1.64428 22.8062 1.1448 20.5585 1.01993C18.2484 0.895056 11.3181 0.895056 9.00797 1.01993C6.76029 1.1448 4.8248 1.64428 3.13904 3.2676C1.51572 4.89092 1.01624 6.88885 0.891369 9.13652C0.766498 11.4466 0.766498 18.377 0.891369 20.6871C1.01624 22.9347 1.51572 24.8702 3.13904 26.556C4.8248 28.1793 6.76029 28.6788 9.00797 28.8037C11.3181 28.9285 18.2484 28.9285 20.5585 28.8037C22.8062 28.6788 24.8041 28.1793 26.4274 26.556C28.0507 24.8702 28.5502 22.9347 28.6751 20.6871C28.8 18.377 28.8 11.4466 28.6751 9.13652ZM25.6782 23.122C25.2412 24.3707 24.2422 25.3073 23.0559 25.8068C21.1829 26.556 16.8124 26.3687 14.8145 26.3687C12.7541 26.3687 8.38361 26.556 6.57299 25.8068C5.32428 25.3073 4.38775 24.3707 3.88827 23.122C3.13904 21.3114 3.32635 16.9409 3.32635 14.8806C3.32635 12.8826 3.13904 8.51217 3.88827 6.63911C4.38775 5.45284 5.32428 4.51631 6.57299 4.01682C8.38361 3.2676 12.7541 3.45491 14.8145 3.45491C16.8124 3.45491 21.1829 3.2676 23.0559 4.01682C24.2422 4.45387 25.1787 5.45284 25.6782 6.63911C26.4274 8.51217 26.2401 12.8826 26.2401 14.8806C26.2401 16.9409 26.4274 21.3114 25.6782 23.122Z" fill="white"/>
</svg>
