<svg width="54" height="54" viewBox="0 0 54 54" fill="none" xmlns="http://www.w3.org/2000/svg">
<circle cx="27.0747" cy="27.3572" r="26.5945" fill="white"/>
<path d="M36.95 32.1339C36.8938 32.0893 32.8114 29.1467 31.6908 29.3579C31.1559 29.4525 30.8501 29.8174 30.2363 30.5477C30.1376 30.6657 29.9003 30.9482 29.7158 31.1491C29.3279 31.0226 28.9496 30.8686 28.5836 30.6883C26.6947 29.7687 25.1685 28.2425 24.2489 26.3536C24.0684 25.9876 23.9144 25.6093 23.788 25.2213C23.9897 25.0362 24.2722 24.7989 24.3929 24.6974C25.1198 24.0871 25.4853 23.7812 25.58 23.245C25.774 22.134 22.8334 18.0235 22.8026 17.9865C22.6692 17.7959 22.4951 17.6373 22.2928 17.5223C22.0906 17.4072 21.8654 17.3386 21.6333 17.3213C20.4415 17.3213 17.0387 21.7356 17.0387 22.479C17.0387 22.5222 17.1011 26.9138 22.5166 32.4226C28.0199 37.832 32.4109 37.8944 32.4541 37.8944C33.1982 37.8944 37.6118 34.4916 37.6118 33.2997C37.5947 33.0685 37.5264 32.844 37.412 32.6424C37.2975 32.4408 37.1397 32.2671 36.95 32.1339Z" fill="#DE2624"/>
</svg>
