<svg width="30" height="24" viewBox="0 0 30 24" fill="none" xmlns="http://www.w3.org/2000/svg">
<path d="M26.4859 5.9405C27.6129 5.09525 28.6272 4.08094 29.4161 2.89759C28.4018 3.34839 27.2185 3.68649 26.0351 3.79919C27.2748 3.06664 28.1764 1.93964 28.6272 0.530889C27.5002 1.20709 26.2042 1.71424 24.9081 1.99599C23.7811 0.81264 22.2597 0.136439 20.5692 0.136439C17.3009 0.136439 14.6524 2.78489 14.6524 6.0532C14.6524 6.504 14.7088 6.9548 14.8215 7.4056C9.91902 7.12385 5.52371 4.75714 2.59351 1.20709C2.08636 2.05234 1.80461 3.06664 1.80461 4.19364C1.80461 6.22225 2.81891 8.02545 4.45306 9.0961C3.49511 9.03975 2.53716 8.81435 1.74826 8.36355V8.4199C1.74826 11.2938 3.77686 13.6605 6.48166 14.224C6.03086 14.3367 5.46736 14.4494 4.96021 14.4494C4.56576 14.4494 4.22766 14.393 3.83321 14.3367C4.56576 16.7034 6.76341 18.3939 9.35552 18.4502C7.32692 20.028 4.79116 20.986 2.03001 20.986C1.52286 20.986 1.07206 20.9296 0.621257 20.8733C3.21336 22.5638 6.31261 23.5217 9.69362 23.5217C20.5692 23.5217 26.4859 14.5621 26.4859 6.7294C26.4859 6.44765 26.4859 6.22225 26.4859 5.9405Z" fill="white"/>
</svg>
